<svg width="1024" height="926" viewBox="0 0 1024 926" fill="none" xmlns="http://www.w3.org/2000/svg">
<path d="M334.398 674.853L417.358 722.749L513.21 741.219L749.074 678.019L806.721 595.91L843.093 515.173L824.497 392.458L754.579 281.764L654.38 216.422L547.693 162.318L416.869 157.115L301.297 202.367L249.562 274.234L207.278 365.213L270.477 601.077L334.398 674.853Z" fill="#E0B23D"/>
<path d="M547.693 162.318L414.435 193.263L346.651 245.622L346.851 299.678L362.28 408.956L320.665 497.591L321.994 594.632L366.989 652.701L420.246 683.449L493.033 693.382L577.737 646.012L633.69 565.655L736.043 524.378L782.956 497.523L794.409 412.641L754.579 281.764L824.497 392.458L843.093 515.173L806.721 595.91L749.074 678.019L513.21 741.219L417.358 722.749L334.398 674.853L270.477 601.077L207.278 365.213L249.562 274.234L301.297 202.367L416.869 157.115L547.693 162.318Z" fill="#BC8F37"/>
<path d="M685.948 458.585L736.366 524.291L725.556 606.404L659.849 656.822L577.737 646.012L527.319 580.305L538.129 498.193L603.835 447.775L685.948 458.585Z" fill="#916E2C"/>
<path d="M677.669 472.924L720.373 528.577L711.217 598.125L655.564 640.829L586.015 631.673L543.311 576.02L552.468 506.471L608.121 463.767L677.669 472.924Z" fill="#F0DE9F"/>
<path d="M703.916 574.109L720.183 528.195L711.217 598.125L655.65 641.151L586.015 631.673L543.502 576.402L589.173 614.378L659.067 615.129L703.916 574.109Z" fill="#C7B578"/>
<path d="M642.19 534.375L651.833 546.942L649.766 562.646L637.199 572.289L621.494 570.222L611.852 557.655L613.919 541.95L626.486 532.307L642.19 534.375Z" fill="#624D2D"/>
<path d="M428.876 310.165L479.295 375.871L468.484 457.983L402.778 508.402L320.665 497.591L270.247 431.885L281.058 349.773L346.764 299.354L428.876 310.165Z" fill="#916E2C"/>
<path d="M420.598 324.503L463.302 380.156L454.146 449.705L398.493 492.409L328.944 483.253L286.24 427.6L295.396 358.051L351.049 315.347L420.598 324.503Z" fill="#F0DE9F"/>
<path d="M446.845 425.689L463.112 379.774L454.146 449.705L398.579 492.731L328.944 483.253L286.43 427.982L332.101 465.957L401.995 466.709L446.845 425.689Z" fill="#C7B578"/>
<path d="M385.119 385.955L394.762 398.521L392.694 414.226L380.127 423.869L364.423 421.801L354.78 409.234L356.848 393.53L369.414 383.887L385.119 385.955Z" fill="#624D2D"/>
<path d="M333.886 674.557L366.476 652.405L420.246 683.449L417.358 722.749L333.886 674.557Z" fill="#624D2D"/>
<path d="M974.724 520.16L843.093 515.173L806.721 595.91L749.074 678.019L700.771 736.846L828.454 706.097L911.49 637.963L974.724 520.16Z" fill="#FFD76F"/>
<path d="M700.771 736.846L749.074 678.019L838.703 628.031L907.3 557.705L974.724 520.16L911.49 637.963L828.454 706.097L700.771 736.846Z" fill="#9C7A48"/>
<path d="M231.675 91.1602L301.809 202.663L250.075 274.53L207.79 365.509L180.995 436.754L143.784 310.802L161.271 204.824L231.675 91.1602Z" fill="#FFD76F"/>
<path d="M180.995 436.754L207.79 365.509L206.266 262.893L232.871 168.324L231.675 91.1602L161.271 204.824L143.784 310.802L180.995 436.754Z" fill="#9C7A48"/>
<path d="M180.995 436.754L249.512 614.919L324.901 683.025L415.541 735.356L512.217 766.592L700.771 736.846L749.074 678.019L513.21 741.219L417.358 722.749L334.91 675.148L270.989 601.373L207.79 365.509L180.995 436.754Z" fill="#EFD298"/>
</svg>
